<?xml version="1.0" encoding="utf-8"?>
<!-- Generator: Adobe Illustrator 24.0.0, SVG Export Plug-In . SVG Version: 6.00 Build 0)  -->
<svg version="1.1" id="Capa_1" xmlns="http://www.w3.org/2000/svg" xmlns:xlink="http://www.w3.org/1999/xlink" x="0px" y="0px"
	 viewBox="0 0 255 95" style="enable-background:new 0 0 255 95;" xml:space="preserve">
<style type="text/css">
	.st0{fill:#FFFFFF;}
	.st1{fill:none;stroke:#E7E7E7;}
	.st2{fill:#275DA7;}
	.st3{fill:#4787C7;}
	.st4{enable-background:new    ;}
</style>
<g id="Grupo_61" transform="translate(-1359 -1984)">
	<g transform="matrix(1, 0, 0, 1, 1359, 1984)">
		<g id="Rectángulo_95-2_1_" transform="translate(9 1)">
			<path class="st0" d="M20,0h197c11,0,20,9,20,20v37c0,11-9,20-20,20H20C9,77,0,68,0,57V20C0,9,9,0,20,0z"/>
			<path class="st1" d="M20,0.5h197c10.8,0,19.5,8.7,19.5,19.5v37c0,10.8-8.7,19.5-19.5,19.5H20C9.2,76.5,0.5,67.8,0.5,57V20
				C0.5,9.2,9.2,0.5,20,0.5z"/>
		</g>
	</g>
	<path id="Rectángulo_101" class="st2" d="M1403,2030h75c1.7,0,3,1.3,3,3l0,0c0,1.7-1.3,3-3,3h-75c-1.7,0-3-1.3-3-3l0,0
		C1400,2031.3,1401.3,2030,1403,2030z"/>
	<path id="Rectángulo_102" class="st3" d="M1403,2041h58c1.7,0,3,1.3,3,3l0,0c0,1.7-1.3,3-3,3h-58c-1.7,0-3-1.3-3-3l0,0
		C1400,2042.3,1401.3,2041,1403,2041z"/>
	<g class="st4">
		<path class="st2" d="M1408.9,2015.9h-3v3h-1.8v-3h-3v-1.7h3v-3h1.8v3h3V2015.9z"/>
		<path class="st2" d="M1414.6,2009.1v11.9h-2.2v-10h-2.5v-1.9H1414.6z"/>
		<path class="st2" d="M1419.3,2020.4c-0.7-0.5-1.3-1.2-1.8-2.1s-0.6-2-0.6-3.3c0-1.3,0.2-2.4,0.6-3.3s1-1.6,1.8-2.1
			c0.7-0.5,1.6-0.7,2.5-0.7s1.8,0.2,2.6,0.7c0.8,0.5,1.3,1.2,1.8,2.1s0.6,2,0.6,3.3c0,1.3-0.2,2.4-0.6,3.3s-1,1.6-1.8,2.1
			c-0.8,0.5-1.6,0.7-2.6,0.7S1420.1,2020.9,1419.3,2020.4z M1423.9,2018.2c0.5-0.7,0.7-1.8,0.7-3.1c0-1.4-0.2-2.4-0.7-3.1
			c-0.5-0.7-1.2-1.1-2-1.1c-0.8,0-1.5,0.4-2,1.1c-0.5,0.7-0.7,1.8-0.7,3.1c0,1.4,0.2,2.4,0.7,3.1c0.5,0.7,1.2,1.1,2,1.1
			C1422.7,2019.2,1423.4,2018.9,1423.9,2018.2z"/>
		<path class="st2" d="M1430.8,2020.4c-0.7-0.5-1.3-1.2-1.8-2.1s-0.6-2-0.6-3.3c0-1.3,0.2-2.4,0.6-3.3s1-1.6,1.8-2.1
			c0.7-0.5,1.6-0.7,2.5-0.7s1.8,0.2,2.6,0.7c0.8,0.5,1.3,1.2,1.8,2.1s0.6,2,0.6,3.3c0,1.3-0.2,2.4-0.6,3.3s-1,1.6-1.8,2.1
			c-0.8,0.5-1.6,0.7-2.6,0.7S1431.5,2020.9,1430.8,2020.4z M1435.3,2018.2c0.5-0.7,0.7-1.8,0.7-3.1c0-1.4-0.2-2.4-0.7-3.1
			c-0.5-0.7-1.2-1.1-2-1.1c-0.8,0-1.5,0.4-2,1.1c-0.5,0.7-0.7,1.8-0.7,3.1c0,1.4,0.2,2.4,0.7,3.1c0.5,0.7,1.2,1.1,2,1.1
			C1434.2,2019.2,1434.8,2018.9,1435.3,2018.2z"/>
		<path class="st2" d="M1442.2,2020.4c-0.7-0.5-1.3-1.2-1.8-2.1s-0.6-2-0.6-3.3c0-1.3,0.2-2.4,0.6-3.3s1-1.6,1.8-2.1
			c0.7-0.5,1.6-0.7,2.5-0.7s1.8,0.2,2.6,0.7c0.8,0.5,1.3,1.2,1.8,2.1s0.6,2,0.6,3.3c0,1.3-0.2,2.4-0.6,3.3s-1,1.6-1.8,2.1
			c-0.8,0.5-1.6,0.7-2.6,0.7S1443,2020.9,1442.2,2020.4z M1446.8,2018.2c0.5-0.7,0.7-1.8,0.7-3.1c0-1.4-0.2-2.4-0.7-3.1
			c-0.5-0.7-1.2-1.1-2-1.1c-0.8,0-1.5,0.4-2,1.1c-0.5,0.7-0.7,1.8-0.7,3.1c0,1.4,0.2,2.4,0.7,3.1c0.5,0.7,1.2,1.1,2,1.1
			C1445.6,2019.2,1446.3,2018.9,1446.8,2018.2z"/>
		<path class="st2" d="M1459,2011v3.6h5.7v1.9h-5.7v4.6h-2.2v-11.9h8.7v1.9H1459z"/>
		<path class="st2" d="M1473.7,2012.8c0.7,0.6,1.1,1.6,1.1,2.9v5.3h-2v-1.1c-0.3,0.4-0.6,0.7-1.1,0.9c-0.5,0.2-1.1,0.3-1.7,0.3
			c-0.7,0-1.3-0.1-1.8-0.3c-0.5-0.2-0.9-0.6-1.2-1c-0.3-0.4-0.4-0.9-0.4-1.4c0-0.8,0.3-1.5,0.9-2c0.6-0.5,1.6-0.7,2.9-0.7h2.3v-0.1
			c0-0.6-0.2-1.1-0.6-1.5c-0.4-0.3-0.9-0.5-1.7-0.5c-0.5,0-1,0.1-1.5,0.2c-0.5,0.2-0.9,0.4-1.2,0.7l-0.8-1.5c0.5-0.4,1-0.6,1.7-0.8
			c0.7-0.2,1.4-0.3,2.1-0.3C1471.9,2011.8,1472.9,2012.1,1473.7,2012.8z M1471.7,2019.2c0.4-0.2,0.7-0.6,0.9-1v-1.1h-2.2
			c-1.2,0-1.8,0.4-1.8,1.2c0,0.4,0.2,0.7,0.5,0.9c0.3,0.2,0.7,0.3,1.3,0.3C1470.8,2019.6,1471.3,2019.5,1471.7,2019.2z"/>
		<path class="st2" d="M1482.7,2011.8v2c-0.2,0-0.3-0.1-0.5-0.1c-0.8,0-1.5,0.2-1.9,0.7s-0.7,1.2-0.7,2.1v4.4h-2.1v-9.1h2v1.3
			C1480.1,2012.3,1481.1,2011.8,1482.7,2011.8z"/>
		<path class="st2" d="M1498.7,2012.8c0.7,0.7,1,1.7,1,3v5.2h-2.1v-4.9c0-0.8-0.2-1.4-0.5-1.8c-0.4-0.4-0.9-0.6-1.5-0.6
			c-0.7,0-1.3,0.2-1.7,0.7c-0.4,0.5-0.6,1.1-0.6,2v4.6h-2.1v-4.9c0-0.8-0.2-1.4-0.5-1.8s-0.9-0.6-1.5-0.6c-0.7,0-1.3,0.2-1.7,0.7
			c-0.4,0.5-0.6,1.1-0.6,2v4.6h-2.1v-9.1h2v1.2c0.3-0.4,0.8-0.7,1.3-0.9c0.5-0.2,1.1-0.3,1.7-0.3c0.7,0,1.3,0.1,1.8,0.4
			c0.5,0.3,0.9,0.6,1.2,1.1c0.4-0.5,0.9-0.8,1.4-1.1s1.2-0.4,2-0.4C1497.1,2011.8,1498,2012.2,1498.7,2012.8z"/>
		<path class="st2" d="M1508.9,2012.8c0.7,0.6,1.1,1.6,1.1,2.9v5.3h-2v-1.1c-0.3,0.4-0.6,0.7-1.1,0.9c-0.5,0.2-1.1,0.3-1.7,0.3
			s-1.3-0.1-1.8-0.3s-0.9-0.6-1.2-1s-0.4-0.9-0.4-1.4c0-0.8,0.3-1.5,0.9-2c0.6-0.5,1.6-0.7,2.9-0.7h2.3v-0.1c0-0.6-0.2-1.1-0.6-1.5
			c-0.4-0.3-0.9-0.5-1.7-0.5c-0.5,0-1,0.1-1.5,0.2c-0.5,0.2-0.9,0.4-1.2,0.7l-0.8-1.5c0.5-0.4,1-0.6,1.7-0.8
			c0.7-0.2,1.4-0.3,2.1-0.3C1507.2,2011.8,1508.2,2012.1,1508.9,2012.8z M1507,2019.2c0.4-0.2,0.7-0.6,0.9-1v-1.1h-2.2
			c-1.2,0-1.8,0.4-1.8,1.2c0,0.4,0.2,0.7,0.5,0.9s0.7,0.3,1.3,0.3C1506.1,2019.6,1506.6,2019.5,1507,2019.2z"/>
		<path class="st2" d="M1514.4,2020.5c-0.7-0.4-1.3-0.9-1.8-1.7c-0.4-0.7-0.6-1.5-0.6-2.4s0.2-1.7,0.6-2.4c0.4-0.7,1-1.3,1.7-1.6
			c0.7-0.4,1.6-0.6,2.5-0.6c0.9,0,1.7,0.2,2.4,0.5c0.7,0.4,1.2,0.9,1.5,1.6l-1.6,1c-0.3-0.4-0.6-0.7-1-0.9c-0.4-0.2-0.8-0.3-1.3-0.3
			c-0.8,0-1.5,0.3-2,0.8s-0.8,1.2-0.8,2.1s0.3,1.5,0.8,2.1s1.2,0.8,2,0.8c0.5,0,0.9-0.1,1.3-0.3c0.4-0.2,0.7-0.5,1-0.9l1.6,1
			c-0.4,0.7-0.9,1.2-1.5,1.6c-0.7,0.4-1.5,0.6-2.3,0.6C1516,2021.1,1515.2,2020.9,1514.4,2020.5z"/>
		<path class="st2" d="M1522.8,2010.1c-0.3-0.2-0.4-0.5-0.4-0.9c0-0.4,0.1-0.7,0.4-0.9c0.3-0.2,0.6-0.4,1-0.4c0.4,0,0.7,0.1,1,0.3
			c0.3,0.2,0.4,0.5,0.4,0.9c0,0.4-0.1,0.7-0.4,0.9c-0.3,0.3-0.6,0.4-1,0.4C1523.4,2010.4,1523,2010.3,1522.8,2010.1z M1522.7,2011.9
			h2.1v9.1h-2.1V2011.9z"/>
		<path class="st2" d="M1534.1,2012.8c0.7,0.6,1.1,1.6,1.1,2.9v5.3h-2v-1.1c-0.3,0.4-0.6,0.7-1.1,0.9c-0.5,0.2-1.1,0.3-1.7,0.3
			s-1.3-0.1-1.8-0.3s-0.9-0.6-1.2-1s-0.4-0.9-0.4-1.4c0-0.8,0.3-1.5,0.9-2c0.6-0.5,1.6-0.7,2.9-0.7h2.3v-0.1c0-0.6-0.2-1.1-0.6-1.5
			c-0.4-0.3-0.9-0.5-1.7-0.5c-0.5,0-1,0.1-1.5,0.2c-0.5,0.2-0.9,0.4-1.2,0.7l-0.8-1.5c0.5-0.4,1-0.6,1.7-0.8
			c0.7-0.2,1.4-0.3,2.1-0.3C1532.4,2011.8,1533.4,2012.1,1534.1,2012.8z M1532.2,2019.2c0.4-0.2,0.7-0.6,0.9-1v-1.1h-2.2
			c-1.2,0-1.8,0.4-1.8,1.2c0,0.4,0.2,0.7,0.5,0.9s0.7,0.3,1.3,0.3C1531.3,2019.6,1531.8,2019.5,1532.2,2019.2z"/>
		<path class="st2" d="M1538.5,2020.8c-0.7-0.2-1.3-0.4-1.7-0.7l0.8-1.6c0.4,0.3,0.9,0.5,1.5,0.7s1.1,0.2,1.7,0.2
			c1.3,0,1.9-0.3,1.9-1c0-0.3-0.2-0.5-0.5-0.7c-0.3-0.1-0.8-0.2-1.6-0.4c-0.7-0.1-1.4-0.2-1.8-0.4c-0.5-0.1-0.9-0.4-1.2-0.8
			c-0.3-0.4-0.5-0.9-0.5-1.5c0-0.9,0.4-1.5,1.1-2.1s1.7-0.8,2.9-0.8c0.6,0,1.2,0.1,1.9,0.2c0.6,0.1,1.1,0.3,1.5,0.6l-0.8,1.6
			c-0.8-0.5-1.6-0.7-2.6-0.7c-0.6,0-1.1,0.1-1.4,0.3c-0.3,0.2-0.5,0.4-0.5,0.7c0,0.3,0.2,0.6,0.5,0.7c0.3,0.1,0.9,0.3,1.6,0.4
			c0.7,0.1,1.3,0.2,1.8,0.4s0.9,0.4,1.2,0.7c0.3,0.4,0.5,0.8,0.5,1.5c0,0.8-0.4,1.5-1.1,2c-0.7,0.5-1.7,0.8-3,0.8
			C1540,2021.1,1539.3,2021,1538.5,2020.8z"/>
	</g>
</g>
</svg>
