<svg xmlns="http://www.w3.org/2000/svg" width="547.005" height="500.384" viewBox="0 0 547.005 500.384">
  <g id="Grupo_30" data-name="Grupo 30" transform="translate(2643.379 -4633.992)" opacity="0.67" style="mix-blend-mode: multiply;isolation: isolate">
    <path id="Trazado_11" data-name="Trazado 11" d="M993.773,322.252c-140.223,23.777-261.786-3.561-271.531-61.014-9.738-57.475,96.038-123.3,236.259-147.07s261.8,3.554,271.524,61.006C1239.763,232.65,1133.978,298.476,993.773,322.252Zm247.859-140.359c-9.218-66.551-135.516-104.024-282.053-83.708C813.027,118.523,701.714,188.939,710.924,255.5c9.234,66.527,135.518,104.023,282.069,83.7S1250.868,248.443,1241.632,181.893Z" transform="translate(-3345.819 4789.654)" fill="#f7f8fd"/>
    <path id="Trazado_12" data-name="Trazado 12" d="M732.367,146.511s-7.909-38.67,33.568-38.563l12.256.031s7.068.488,9.928-9.875c0,0,.946-2.356,6.6-2.341s32.516,1.983,46.205-1.281c0,0,9.188,2.15-4.28,9.875,0,0-5.9,4.461-.023,10.371,0,0,13.613,19.369,15.368,69.806,0,0-6.208,31.571,22.549,31.647s21.772-35.292,9.068-41.446c-12.721-6.161-30.6-17.059-6.492-46.7,24.128-29.626,111.453-74.183,250.5-67.206,0,0-19.59,92.8-74.777,108.7,0,0,1.762,43.36-18.073,60.747-19.851,17.387-29.291,21.131-34.477,23.952-5.193,2.806-7.084,6.566-8.524,14.115s1.808,31.113-52.436,44.176c0,0-13.206,2.31-4.744,8.472,8.476,6.146,39.968,38.762,47.953,50.094s13.1,37.259,15.419,49.994,15.525,13.238,18.829,11.363,8.037-13.643-4.615-37.717-30.014-58.986-29.5-76.433,4.774-23.1,13.276-28.734,36.812-14.512,54.57,40.218c0,0,19.31,5.719,18.813,17.028s-.12,46.189-.12,46.189-60.267-24.662-38.495-59.961c0,0-5.574-32.547-24.907-29.3,0,0-12.725,3.737.4,31.594s51.595,93.453,29.4,109.895-41.965,3.668-52.312-4.377c0,0-18.417,11.721-12.316,22.115s23.014,32.585-37.787,30.068c0,0-54.693,3.622-73.055-3.492,0,0-4.354-5.879-9.089-1.6s-7.893,6.5-13.514,1.525c0,0,4.529-11.019,28.435-21.993l38.289.328s10.381-.648-1.327-6.757-36.631-9.326-34.139-36.077c0,0,.368-4.865,6.642-11.111,0,0-2.4-13.551-18.385-10.79-16,2.722-33.769,24.9-58.734,4,0,0-2.083-1.052-2.09,3.111l-.22,82.335s-36.474,1.647-47.241.923S734.54,484,730.37,488.153c-4.182,4.163-10.1,6.932-9.724-1.052.368-8.007,5.942-14.23,32.387-32.577L746.7,355.144s-20.8-17.074-20.688-60.152S768,183.953,768,183.953s11.849-17.692-5.849-20.155c0,0,10.08-1.38,11.135-7.641,1.059-6.245-10.381-16-24.967-16.037s-14.26,6.909-14.26,6.909Z" transform="translate(-3278 4573.895)" fill="#f7f8fd"/>
    <path id="Trazado_13" data-name="Trazado 13" d="M1250.47,142.74c-16.013-39.059-62.514-61.326-124.072-65.566-.411,3.172-.976,6.5-1.72,9.883,55.437,1.373,96.945,18.478,111.434,51.092,29.122,65.5-61.768,168.667-202.983,230.435-141.217,61.746-279.279,58.718-308.4-6.825C705.585,318.7,738.36,259.323,803.212,206.149a111.6,111.6,0,0,1-2.358-20.216c-70.537,56.026-106.445,122.111-85.63,172.868,31,75.594,175.957,88.5,323.776,28.856C1186.8,327.993,1281.492,218.342,1250.47,142.74Z" transform="translate(-3352.73 4687.035)" fill="#f7f8fd"/>
  </g>
</svg>
