<svg xmlns="http://www.w3.org/2000/svg" width="15.911" height="15.911" viewBox="0 0 15.911 15.911">
  <path id="phone" d="M15.691,13.231l-2.244,2.225a1.623,1.623,0,0,1-1.2.455,10.375,10.375,0,0,1-5.144-1.939,19.843,19.843,0,0,1-6-6.55A8.475,8.475,0,0,1,0,3.689,1.634,1.634,0,0,1,.459,2.475L2.7.233a.742.742,0,0,1,1.215.2l1.8,3.422a.994.994,0,0,1-.2,1.13l-.827.826a.407.407,0,0,0-.084.236A7.046,7.046,0,0,0,6.734,9.185c.848.778,1.76,1.832,2.943,2.082a.466.466,0,0,0,.43-.042l.961-.978a1.1,1.1,0,0,1,1.164-.168h.017L15.5,12a.783.783,0,0,1,.186,1.23Z" transform="translate(0 0)" fill="#134392"/>
</svg>
