<svg xmlns="http://www.w3.org/2000/svg" width="13.289" height="15.333" viewBox="0 0 13.289 15.333">
  <g id="Grupo_61" data-name="Grupo 61" transform="translate(0 0)">
    <path id="Trazado_39" data-name="Trazado 39" d="M18.09,21.821a8.771,8.771,0,0,0-12.89,0,.772.772,0,0,0-.2.511V25.4a.767.767,0,0,0,.767.756H17.522a.767.767,0,0,0,.767-.767V22.321A.772.772,0,0,0,18.09,21.821Z" transform="translate(-5 -10.822)" fill="#134392"/>
    <path id="Trazado_40" data-name="Trazado 40" d="M18.156,6.578A3.578,3.578,0,1,1,14.578,3a3.578,3.578,0,0,1,3.578,3.578Z" transform="translate(-7.933 -3)" fill="#134392"/>
  </g>
</svg>
