<svg id="Grupo_62" data-name="Grupo 62" xmlns="http://www.w3.org/2000/svg" width="38" height="38" viewBox="0 0 38 38">
  <g id="Elipse_29" data-name="Elipse 29" fill="none" stroke="#134392" stroke-width="2">
    <circle cx="19" cy="19" r="19" stroke="none"/>
    <circle cx="19" cy="19" r="18" fill="none"/>
  </g>
  <path id="instagram" d="M10.047,7.535A2.513,2.513,0,0,0,7.535,5.023,2.513,2.513,0,0,0,5.023,7.535a2.513,2.513,0,0,0,2.512,2.512,2.513,2.513,0,0,0,2.512-2.512Zm1.354,0A3.852,3.852,0,0,1,7.535,11.4,3.852,3.852,0,0,1,3.67,7.535,3.852,3.852,0,0,1,7.535,3.67,3.852,3.852,0,0,1,11.4,7.535Zm1.06-4.023a.9.9,0,1,1-1.54-.638.9.9,0,0,1,1.54.638ZM7.535,1.354l-.751-.005q-.682-.005-1.035,0T4.8,1.378a7.737,7.737,0,0,0-1.011.1,3.9,3.9,0,0,0-.7.182A2.566,2.566,0,0,0,1.658,3.091a3.937,3.937,0,0,0-.182.7,7.737,7.737,0,0,0-.1,1.011q-.024.594-.029.947t0,1.035q.005.682.005.751t-.005.751q-.005.682,0,1.035t.029.947a7.737,7.737,0,0,0,.1,1.011,3.914,3.914,0,0,0,.182.7,2.566,2.566,0,0,0,1.433,1.433,3.937,3.937,0,0,0,.7.182,7.738,7.738,0,0,0,1.011.1q.594.024.947.029t1.035,0l.751-.005.751.005q.682.005,1.035,0t.947-.029a7.737,7.737,0,0,0,1.011-.1,3.938,3.938,0,0,0,.7-.182,2.566,2.566,0,0,0,1.433-1.433,3.937,3.937,0,0,0,.182-.7,7.737,7.737,0,0,0,.1-1.011q.024-.594.029-.947t0-1.035q-.005-.682-.005-.751t.005-.751q.005-.682,0-1.035T13.693,4.8a7.737,7.737,0,0,0-.1-1.011,3.862,3.862,0,0,0-.183-.7A2.566,2.566,0,0,0,11.98,1.658a3.937,3.937,0,0,0-.7-.182,7.737,7.737,0,0,0-1.011-.1q-.594-.024-.947-.029t-1.035,0l-.751.005ZM15.07,7.535q0,2.247-.049,3.11A4.6,4.6,0,0,1,13.8,13.8a4.6,4.6,0,0,1-3.159,1.217q-.864.049-3.11.049t-3.11-.049A4.6,4.6,0,0,1,1.265,13.8,4.6,4.6,0,0,1,.049,10.645Q0,9.782,0,7.535t.049-3.11A4.6,4.6,0,0,1,1.265,1.265,4.6,4.6,0,0,1,4.425.049Q5.288,0,7.535,0t3.11.049A4.6,4.6,0,0,1,13.8,1.265a4.6,4.6,0,0,1,1.217,3.159Q15.07,5.288,15.07,7.535Z" transform="translate(11.465 11.5)" fill="#134392" stroke="#134392" stroke-width="0.5"/>
</svg>
