<svg id="Grupo_61" data-name="Grupo 61" xmlns="http://www.w3.org/2000/svg" width="38" height="38" viewBox="0 0 38 38">
  <g id="Elipse_28" data-name="Elipse 28" fill="none" stroke="#134392" stroke-width="2">
    <circle cx="19" cy="19" r="19" stroke="none"/>
    <circle cx="19" cy="19" r="18" fill="none"/>
  </g>
  <path id="linkedin" d="M3.421,14.408V4.687H.19v9.721ZM1.806,3.359A1.685,1.685,0,1,0,1.828,0a1.684,1.684,0,1,0-.042,3.359h.021Zm3.4,11.049H8.441V8.979a2.212,2.212,0,0,1,.106-.788A1.769,1.769,0,0,1,10.2,7.009c1.169,0,1.637.891,1.637,2.2v5.2h3.231V8.834c0-2.986-1.594-4.375-3.72-4.375A3.218,3.218,0,0,0,8.419,6.1h.022V4.686H5.21c.042.912,0,9.721,0,9.721Z" transform="translate(11 12)" fill="#134392"/>
</svg>
