<svg id="Grupo_56" data-name="Grupo 56" xmlns="http://www.w3.org/2000/svg" width="203.317" height="63.575" viewBox="0 0 203.317 63.575">
  <g id="Grupo_1" data-name="Grupo 1" transform="translate(0 20.434)">
    <path id="Trazado_1" data-name="Trazado 1" d="M42.382,106.585a9.572,9.572,0,0,1,6.582,2.213,7.926,7.926,0,0,1,2.467,6.234v.432l-5.076-.014v-.4a3.678,3.678,0,0,0-4.021-3.97,3.59,3.59,0,0,0-3.136,1.324,7.621,7.621,0,0,0-1.02,4.5l-.014,5.364a7.085,7.085,0,0,0,1,4.287,3.807,3.807,0,0,0,3.2,1.3,3.984,3.984,0,0,0,2.955-1.036,3.817,3.817,0,0,0,1.015-2.805v-.468l5,.013V124a7.933,7.933,0,0,1-2.464,6.257,9.377,9.377,0,0,1-6.63,2.178c-6.12-.016-9.206-3.408-9.188-10.1l.015-5.688C33.085,109.944,36.227,106.568,42.382,106.585Z" transform="translate(-33.053 -106.585)" fill="#000e78"/>
    <path id="Trazado_2" data-name="Trazado 2" d="M128.94,133.33l.028-10.511-7.884-.021-.028,10.511-5.076-.014.067-25.2,5.076.014-.027,10.223,7.884.021.027-10.224,5.075.014-.067,25.2Z" transform="translate(-94.446 -107.704)" fill="#000e78"/>
    <path id="Trazado_3" data-name="Trazado 3" d="M206.3,133.535l-5.076-.014.067-25.2,5.076.014Z" transform="translate(-157.556 -107.872)" fill="#000e78"/>
    <path id="Trazado_4" data-name="Trazado 4" d="M241.66,129.166l10.871.029-.012,4.464-15.947-.043.067-25.2,5.076.013Z" transform="translate(-183.722 -107.942)" fill="#000e78"/>
    <path id="Trazado_5" data-name="Trazado 5" d="M322.643,118.906l-.012,4.464-9.431-.025-.016,6.012,11.051.029-.012,4.464-16.127-.043.067-25.2,16.127.043-.012,4.464-11.051-.03-.015,5.8Z" transform="translate(-236.673 -108.083)" fill="#000e78"/>
    <path id="Trazado_6" data-name="Trazado 6" d="M377.479,125.061l3.312.009c.207,3.312,2.039,4.937,5.567,4.946a6.123,6.123,0,0,0,4.034-1.1,3.789,3.789,0,0,0,1.34-3.164A3.723,3.723,0,0,0,390.7,122.9a6.613,6.613,0,0,0-3.308-1.341l-2.807-.475a9.227,9.227,0,0,1-4.818-2.173,6.25,6.25,0,0,1-1.715-4.684,6.672,6.672,0,0,1,2.354-5.394,9.118,9.118,0,0,1,6.017-1.892,8.714,8.714,0,0,1,5.647,1.815,7.986,7.986,0,0,1,2.648,5.839l-3.312-.009c-.172-3.132-1.823-4.649-5.027-4.657a5.538,5.538,0,0,0-3.747,1.106,3.767,3.767,0,0,0-1.3,3.02,3.392,3.392,0,0,0,.965,2.594,6.026,6.026,0,0,0,3.164,1.34l2.879.512a9,9,0,0,1,4.962,2.281,6.416,6.416,0,0,1,1.75,4.828,6.635,6.635,0,0,1-2.426,5.5,9.834,9.834,0,0,1-6.449,1.927,9.224,9.224,0,0,1-6.115-1.924A8.453,8.453,0,0,1,377.479,125.061Z" transform="translate(-288.039 -106.849)" fill="#fe182a"/>
    <path id="Trazado_7" data-name="Trazado 7" d="M465.3,139.229l-.034,12.779L462.131,152l0-1.368a5.58,5.58,0,0,1-1.551,1.04,8.133,8.133,0,0,1-3.133.532,7.034,7.034,0,0,1-4.712-1.452,5.5,5.5,0,0,1-1.681-4.288,5.172,5.172,0,0,1,1.739-4.1,7.143,7.143,0,0,1,4.755-1.463l4.572.012,0-1.728a3.572,3.572,0,0,0-.965-2.739,3.933,3.933,0,0,0-2.805-.907,4.23,4.23,0,0,0-2.7.749,2.432,2.432,0,0,0-.942,2.049v.468l-3.1-.008,0-.54a4.988,4.988,0,0,1,1.847-4.027,7.456,7.456,0,0,1,4.863-1.463,7.258,7.258,0,0,1,5.143,1.669A6.08,6.08,0,0,1,465.3,139.229Zm-3.184,6.219.005-2.016-4.212-.011c-2.484-.007-3.674.962-3.68,3.014-.005,2.088,1.144,3.063,3.628,3.069a4.314,4.314,0,0,0,3.242-1A4.021,4.021,0,0,0,462.113,145.448Z" transform="translate(-342.512 -125.968)" fill="#fe182a"/>
    <path id="Trazado_8" data-name="Trazado 8" d="M519.667,128.888l.054-20.411,3.168.009-.054,20.267a2.747,2.747,0,0,0,.463,1.837,1.865,1.865,0,0,0,1.474.508l1.836,0-.008,2.952-2.088-.006a4.674,4.674,0,0,1-3.6-1.341A5.417,5.417,0,0,1,519.667,128.888Z" transform="translate(-393.304 -107.986)" fill="#fe182a"/>
    <path id="Trazado_9" data-name="Trazado 9" d="M553.37,145.85l.031-11.915,3.168.009-.031,11.591a5.708,5.708,0,0,0,.891,3.566,3.494,3.494,0,0,0,2.984,1.124,3.593,3.593,0,0,0,2.991-1.072,5.688,5.688,0,0,0,.91-3.6l.03-11.591,3.168.008-.032,11.915a7.532,7.532,0,0,1-1.779,5.359,7.024,7.024,0,0,1-5.332,1.894,6.91,6.91,0,0,1-5.251-1.922A7.53,7.53,0,0,1,553.37,145.85Z" transform="translate(-418.255 -126.833)" fill="#fe182a"/>
    <path id="Trazado_10" data-name="Trazado 10" d="M633.693,108.865l-.068,25.558-3.2-.009,0-1.62a5.516,5.516,0,0,1-1.443,1.112,6.2,6.2,0,0,1-3.133.712,6.138,6.138,0,0,1-4.675-1.956c-1.22-1.263-1.827-3.245-1.82-5.908l.01-3.744c.007-2.664.624-4.642,1.851-5.9a6.215,6.215,0,0,1,4.721-1.931,5.7,5.7,0,0,1,4.53,1.992l.022-8.315ZM630.442,126.6l.009-3.2a6.634,6.634,0,0,0-1.034-3.891,3.53,3.53,0,0,0-3.02-1.376c-2.556-.007-3.82,1.61-3.829,5.029l-.009,3.456c-.009,3.42,1.174,5.079,3.658,5.086a3.694,3.694,0,0,0,3.135-1.36A6.006,6.006,0,0,0,630.442,126.6Z" transform="translate(-467.105 -108.266)" fill="#fe182a"/>
  </g>
  <g id="Grupo_6" data-name="Grupo 6" transform="translate(168.49)">
    <g id="Grupo_2" data-name="Grupo 2" transform="translate(7.13 8.362)">
      <path id="Trazado_11" data-name="Trazado 11" d="M720.043,100.48c-4.775.81-8.914-.121-9.246-2.078s3.27-4.2,8.045-5.008,8.915.121,9.246,2.077S724.817,99.67,720.043,100.48Zm8.44-4.78c-.314-2.266-4.615-3.542-9.6-2.85s-8.781,3.09-8.467,5.357,4.615,3.542,9.605,2.85S728.8,97.966,728.483,95.7Z" transform="translate(-710.122 -84.205)" fill="#fe182a"/>
      <path id="Trazado_12" data-name="Trazado 12" d="M721.028,63.04a1.055,1.055,0,0,1,1.143-1.313h.417s.241.017.338-.336c0,0,.032-.08.225-.08a7.82,7.82,0,0,0,1.573-.044s.313.073-.146.336a.22.22,0,0,0,0,.353,4.73,4.73,0,0,1,.523,2.377s-.211,1.075.768,1.078.741-1.2.309-1.411-1.042-.581-.221-1.59,3.8-2.526,8.53-2.289c0,0-.667,3.16-2.546,3.7,0,0,.06,1.477-.615,2.069a4.86,4.86,0,0,1-1.174.816.577.577,0,0,0-.29.481c-.049.257.062,1.059-1.786,1.5,0,0-.45.079-.162.288a13.863,13.863,0,0,1,1.633,1.706,5.369,5.369,0,0,1,.525,1.7.49.49,0,0,0,.641.387c.112-.064.274-.465-.157-1.284a7.672,7.672,0,0,1-1-2.6c.018-.594.163-.787.452-.978s1.253-.494,1.858,1.37c0,0,.658.195.641.58s0,1.573,0,1.573-2.052-.84-1.311-2.042c0,0-.19-1.108-.848-1,0,0-.433.127.014,1.076s1.757,3.182,1,3.742a1.376,1.376,0,0,1-1.781-.149s-.627.4-.419.753.784,1.11-1.287,1.024a9.432,9.432,0,0,1-2.488-.119s-.148-.2-.31-.055-.269.221-.46.052c0,0,.154-.375.968-.749l1.3.011s.353-.022-.045-.23-1.247-.318-1.163-1.229a.679.679,0,0,1,.226-.378.492.492,0,0,0-.626-.367c-.545.093-1.15.848-2,.136,0,0-.071-.036-.071.106l-.008,2.8s-1.242.056-1.609.031-.484-.321-.626-.179-.344.236-.331-.036.2-.485,1.1-1.109l-.216-3.384a2.645,2.645,0,0,1-.7-2.048,10,10,0,0,1,1.43-3.781s.4-.6-.2-.686c0,0,.343-.047.379-.26s-.353-.545-.85-.546-.486.235-.486.235Z" transform="translate(-717.7 -60.097)" fill="#fe182a"/>
      <path id="Trazado_13" data-name="Trazado 13" d="M727.777,79.407c-.545-1.33-2.129-2.088-4.225-2.233-.014.108-.033.222-.059.337,1.888.047,3.3.629,3.795,1.74.992,2.23-2.1,5.744-6.912,7.847s-9.51,2-10.5-.232c-.652-1.466.464-3.488,2.673-5.3a3.8,3.8,0,0,1-.08-.688c-2.4,1.908-3.625,4.158-2.916,5.887,1.056,2.574,5.992,3.014,11.025.983S728.834,81.981,727.777,79.407Z" transform="translate(-709.351 -72.74)" fill="#000e78"/>
    </g>
    <g id="Grupo_5" data-name="Grupo 5">
      <g id="Grupo_4" data-name="Grupo 4" transform="translate(0.202)">
        <g id="Grupo_3" data-name="Grupo 3">
          <path id="Trazado_14" data-name="Trazado 14" d="M699.382,27.895a16.675,16.675,0,0,0-16.709,16.632,16.43,16.43,0,0,0,2.494,8.817l13.159,21.19a1.105,1.105,0,0,0,1.876.005l13.272-21.12a16.432,16.432,0,0,0,2.541-8.8A16.678,16.678,0,0,0,699.382,27.895Zm-.066,29.445a12.5,12.5,0,1,1,12.535-12.468A12.5,12.5,0,0,1,699.316,57.34Z" transform="translate(-682.673 -27.895)" fill="#000e78"/>
        </g>
      </g>
      <circle id="Elipse_1" data-name="Elipse 1" cx="2.418" cy="2.418" r="2.418" transform="translate(14.358 50.552)" fill="#000e78"/>
      <path id="Trazado_15" data-name="Trazado 15" d="M714.826,188.589c-.974-2.4-3.8-3.768-7.549-4.029-.025.195-.059.4-.1.607,3.373.084,5.9,1.135,6.78,3.139,1.772,4.025-3.759,10.365-12.35,14.161s-16.992,3.609-18.764-.419c-.943-2.142.185-4.941,2.742-7.663-.079-.172-.325-.574-.5-.973-2.7,2.9-3.829,5.966-2.819,8.454,1.886,4.646,10.706,5.439,19.7,1.773S716.713,193.234,714.826,188.589Z" transform="translate(-681.894 -143.877)" fill="#000e78" stroke="#000e78" stroke-miterlimit="10" stroke-width="3"/>
    </g>
  </g>
</svg>
