<svg xmlns="http://www.w3.org/2000/svg" width="45.941" height="81.384" viewBox="0 0 45.941 81.384">
  <g id="Grupo_61" data-name="Grupo 61" transform="translate(1.555 0)">
    <g id="Grupo_2" data-name="Grupo 2" transform="translate(9.176 10.762)">
      <path id="Trazado_11" data-name="Trazado 11" d="M722.812,102.723c-6.145,1.042-11.472-.156-11.9-2.674s4.209-5.4,10.354-6.445,11.473.156,11.9,2.673S728.956,101.681,722.812,102.723Zm10.862-6.151c-.4-2.916-5.939-4.559-12.36-3.668s-11.3,3.977-10.9,6.894,5.939,4.559,12.361,3.668S734.078,99.488,733.673,96.572Z" transform="translate(-710.045 -81.779)" fill="#fe182a"/>
      <path id="Trazado_12" data-name="Trazado 12" d="M721.143,63.884a1.358,1.358,0,0,1,1.471-1.69h.537s.31.021.435-.433c0,0,.041-.1.289-.1A10.064,10.064,0,0,0,725.9,61.6s.4.094-.188.433a.284.284,0,0,0,0,.454,6.087,6.087,0,0,1,.673,3.059s-.272,1.384.988,1.387.954-1.547.4-1.816-1.341-.748-.284-2.047,4.884-3.251,10.978-2.945c0,0-.859,4.067-3.277,4.763,0,0,.077,1.9-.792,2.662a6.253,6.253,0,0,1-1.511,1.05.742.742,0,0,0-.374.619c-.063.331.079,1.363-2.3,1.936,0,0-.579.1-.208.371a17.838,17.838,0,0,1,2.1,2.2,6.91,6.91,0,0,1,.676,2.191.631.631,0,0,0,.825.5c.145-.082.352-.6-.2-1.653a9.873,9.873,0,0,1-1.293-3.35c.023-.764.209-1.012.582-1.259s1.613-.636,2.391,1.762c0,0,.846.251.824.746s-.005,2.024-.005,2.024-2.641-1.081-1.687-2.628c0,0-.244-1.426-1.091-1.284,0,0-.558.164.017,1.385s2.261,4.1,1.288,4.816a1.771,1.771,0,0,1-2.292-.192s-.807.514-.54.969,1.009,1.428-1.656,1.318a12.137,12.137,0,0,1-3.2-.153s-.191-.258-.4-.07-.346.285-.592.067c0,0,.2-.483,1.246-.964l1.678.014s.455-.028-.058-.3-1.605-.409-1.5-1.581a.874.874,0,0,1,.291-.487.633.633,0,0,0-.806-.473c-.7.119-1.48,1.091-2.574.175,0,0-.091-.046-.092.136l-.01,3.608s-1.6.072-2.07.04-.623-.413-.806-.231-.443.3-.426-.046.26-.624,1.419-1.428l-.277-4.355a3.4,3.4,0,0,1-.907-2.636c0-1.887,1.84-4.866,1.84-4.866s.519-.775-.256-.883c0,0,.442-.06.488-.335s-.455-.7-1.094-.7-.625.3-.625.3Z" transform="translate(-716.86 -60.097)" fill="#fe182a"/>
      <path id="Trazado_13" data-name="Trazado 13" d="M733.064,80.047c-.7-1.712-2.74-2.687-5.437-2.873-.018.139-.043.285-.075.433,2.429.06,4.248.81,4.883,2.239,1.276,2.87-2.707,7.391-8.9,10.1s-12.239,2.573-13.515-.3c-.839-1.887.6-4.489,3.439-6.819a4.888,4.888,0,0,1-.1-.886c-3.091,2.455-4.665,5.351-3.753,7.576,1.359,3.313,7.711,3.879,14.189,1.265S734.423,83.36,733.064,80.047Z" transform="translate(-709.351 -71.467)" fill="#000e78"/>
    </g>
    <path id="Trazado_14" data-name="Trazado 14" d="M704.176,27.895a21.459,21.459,0,0,0-21.5,21.4,21.144,21.144,0,0,0,3.209,11.347l16.935,27.27a1.423,1.423,0,0,0,2.414.007l17.08-27.179a21.147,21.147,0,0,0,3.27-11.33A21.463,21.463,0,0,0,704.176,27.895Zm-.085,37.893a16.089,16.089,0,1,1,16.131-16.046A16.092,16.092,0,0,1,704.091,65.788Z" transform="translate(-682.413 -27.895)" fill="#000e78"/>
    <circle id="Elipse_1" data-name="Elipse 1" cx="3.112" cy="3.112" r="3.112" transform="translate(18.478 65.056)" fill="#000e78"/>
    <path id="Trazado_15" data-name="Trazado 15" d="M724.275,189.745c-1.254-3.089-4.895-4.849-9.715-5.185-.032.251-.076.514-.134.781,4.341.109,7.59,1.461,8.725,4.04,2.28,5.18-4.837,13.339-15.894,18.224s-21.868,4.644-24.147-.539c-1.213-2.757.239-6.358,3.528-9.861-.1-.222-.418-.739-.645-1.253-3.475,3.726-4.928,7.677-3.627,10.879,2.427,5.979,13.777,7,25.351,2.282S726.7,195.723,724.275,189.745Z" transform="translate(-681.894 -132.205)" fill="#000e78" stroke="#000e78" stroke-miterlimit="10" stroke-width="3"/>
  </g>
</svg>
