<svg xmlns="http://www.w3.org/2000/svg" width="74" height="74" viewBox="0 0 74 74">
  <g id="Grupo_61" data-name="Grupo 61" transform="translate(-278 -1031)">
    <rect id="Rectángulo_105" data-name="Rectángulo 105" width="74" height="74" rx="14" transform="translate(278 1031)" fill="#d2e8ff"/>
    <path id="mail" d="M29.813,5.625H6.188A3.942,3.942,0,0,0,2.25,9.563V26.438a3.942,3.942,0,0,0,3.938,3.938H29.813a3.942,3.942,0,0,0,3.938-3.938V9.563a3.942,3.942,0,0,0-3.938-3.938Zm-1,6.513L18.691,20.013a1.125,1.125,0,0,1-1.381,0L7.185,12.138a1.125,1.125,0,1,1,1.381-1.776L18,17.7l9.435-7.338a1.125,1.125,0,1,1,1.381,1.776Z" transform="translate(297 1052.443)" fill="#134392"/>
  </g>
</svg>
