<svg xmlns="http://www.w3.org/2000/svg" xmlns:xlink="http://www.w3.org/1999/xlink" width="478" height="115" viewBox="0 0 478 115">
  <defs>
    <filter id="Rectángulo_114" x="0" y="0" width="478" height="115" filterUnits="userSpaceOnUse">
      <feOffset dy="8" input="SourceAlpha"/>
      <feGaussianBlur stdDeviation="3" result="blur"/>
      <feFlood flood-opacity="0.031"/>
      <feComposite operator="in" in2="blur"/>
      <feComposite in="SourceGraphic"/>
    </filter>
  </defs>
  <g id="Grupo_61" data-name="Grupo 61" transform="translate(9 1)">
    <g transform="matrix(1, 0, 0, 1, -9, -1)" filter="url(#Rectángulo_114)">
      <g id="Rectángulo_114-2" data-name="Rectángulo 114" transform="translate(9 1)" fill="#fff" stroke="#e7e7e7" stroke-width="1">
        <rect width="460" height="97" rx="20" stroke="none"/>
        <rect x="0.5" y="0.5" width="459" height="96" rx="19.5" fill="none"/>
      </g>
    </g>
    <rect id="Rectángulo_116" data-name="Rectángulo 116" width="64" height="5" rx="2.5" transform="translate(115 69)" fill="#f04"/>
    <g id="Elipse_34" data-name="Elipse 34" transform="translate(30 16)" fill="none" stroke="#4c70a1" stroke-width="4">
      <circle cx="32" cy="32" r="32" stroke="none"/>
      <circle cx="32" cy="32" r="30" fill="none"/>
    </g>
    <g id="generate-pdf" transform="translate(44 32.75)">
      <path id="Trazado_41" data-name="Trazado 41" d="M27,27v4.5H9V27H6.75v4.5A2.25,2.25,0,0,0,9,33.75H27a2.25,2.25,0,0,0,2.25-2.25V27Z" fill="#f04"/>
      <path id="Trazado_42" data-name="Trazado 42" d="M23.625,23.625l-1.591-1.591-2.909,2.91V15.75h-2.25v9.194l-2.909-2.909-1.591,1.59L18,29.25Z" fill="#f04"/>
      <path id="Trazado_43" data-name="Trazado 43" d="M31.5,4.5V2.25H24.75V13.5H27V9h3.375V6.75H27V4.5Z" fill="#f04"/>
      <path id="Trazado_44" data-name="Trazado 44" d="M19.125,13.5h-4.5V2.25h4.5A3.378,3.378,0,0,1,22.5,5.625v4.5A3.378,3.378,0,0,1,19.125,13.5Zm-2.25-2.25h2.25a1.126,1.126,0,0,0,1.125-1.125v-4.5A1.126,1.126,0,0,0,19.125,4.5h-2.25Z" fill="#f04"/>
      <path id="Trazado_45" data-name="Trazado 45" d="M10.125,2.25H4.5V13.5H6.75V10.125h3.375a2.253,2.253,0,0,0,2.25-2.25V4.5a2.252,2.252,0,0,0-2.25-2.25ZM6.75,7.875V4.5h3.375V7.875Z" fill="#f04"/>
    </g>
    <text id="Sweet_Ice_Cream_TAG:H2_" data-name="Sweet Ice Cream [TAG:H2]" transform="translate(115 39)" fill="#275da7" font-size="17" font-family="Montserrat-SemiBold, Montserrat" font-weight="600"><tspan x="0" y="0">Conoce los detalles del programa</tspan><tspan x="0" y="20">ChileSalud para farmacias</tspan></text>
  </g>
</svg>
